<svg width="512" height="512" viewBox="0 0 512 512" fill="none" xmlns="http://www.w3.org/2000/svg">
  <circle cx="256" cy="256" r="256" fill="#EDE9FE"/>
  <g transform="scale(1.2) translate(85, 85)">
    <path d="M202.667 53.3333H55.3333C49.1442 53.3333 42.6667 58.4772 42.6667 64V96H213.333V64C213.333 58.4772 208.856 53.3333 202.667 53.3333Z" fill="#5B21B6"/>
    <path d="M160 53.3333V32C160 21.9858 151.014 13.0001 140.999 13.0001H117.001C106.986 13.0001 98 21.9858 98 32V53.3333H160Z" fill="#5B21B6"/>
    <path d="M224 202.667C224 213.213 215.213 222 204.667 222H51.3333C40.7873 222 32 213.213 32 202.667V96H224V202.667Z" fill="#5B21B6"/>
    <rect x="74.6667" y="128" width="32" height="42.6667" rx="8" fill="#EDE9FE"/>
    <rect x="149.333" y="128" width="32" height="42.6667" rx="8" fill="#EDE9FE"/>
  </g>
</svg>
